<svg width="78" height="78" viewBox="0 0 78 78" fill="none" xmlns="http://www.w3.org/2000/svg">
<g clip-path="url(#clip0_65_53)">
<mask id="mask0_65_53" style="mask-type:luminance" maskUnits="userSpaceOnUse" x="0" y="0" width="78" height="78">
<path d="M0 0H78V78H0V0Z" fill="white"/>
</mask>
<g mask="url(#mask0_65_53)">
<path d="M42.1804 15.581L39 0.462189L35.8195 15.581C34.7733 20.5543 32.303 25.1158 28.7094 28.7094C25.1158 32.303 20.5542 34.7734 15.5809 35.8195L0.462158 39L15.5809 42.1805C20.5542 43.2266 25.1157 45.6973 28.7094 49.2908C32.303 52.8843 34.7733 57.4457 35.8195 62.4192L39 77.5378L42.1804 62.4192C43.2266 57.4457 45.6969 52.8843 49.2904 49.2908C52.8843 45.6973 57.4457 43.2266 62.4191 42.1805L77.5378 39L62.4191 35.8195C57.4457 34.7734 52.884 32.303 49.2904 28.7094C45.6969 25.1158 43.2266 20.5543 42.1804 15.581Z" fill="#1E1E1E"/>
</g>
</g>
<defs>
<clipPath id="clip0_65_53">
<rect width="78" height="78" fill="white"/>
</clipPath>
</defs>
</svg>
