<svg width="128" height="128" viewBox="0 0 128 128" fill="none" xmlns="http://www.w3.org/2000/svg">
<path d="M124.641 93.2434H118.313H117.73C118.451 89.6702 118.822 86.0224 118.822 82.3494C118.822 53.2487 96.0297 29.3757 67.3597 27.6337V20.3577H73.407C75.2625 20.3577 76.7665 18.8532 76.7665 16.9982C76.7665 15.1429 75.2625 13.6387 73.407 13.6387H54.5933C52.7378 13.6387 51.2337 15.1432 51.2337 16.9982C51.2337 18.8534 52.7378 20.3577 54.5933 20.3577H60.6405V27.6334C31.9705 29.3757 9.178 53.2489 9.178 82.3497C9.178 86.0227 9.54925 89.6704 10.2703 93.2437H9.68675H3.3595C1.504 93.2437 0 94.7482 0 96.6034C0 98.4587 1.504 99.9629 3.3595 99.9629H6.327V111.002C6.327 112.857 7.831 114.361 9.6865 114.361H118.313C120.168 114.361 121.672 112.857 121.672 111.002V99.9629H124.64C126.495 99.9629 127.999 98.4584 127.999 96.6034C127.999 94.7484 126.496 93.2434 124.641 93.2434ZM64 34.2469C90.5242 34.2469 112.103 55.8254 112.103 82.3497C112.103 86.0324 111.686 89.6864 110.863 93.2437H17.1373C16.3138 89.6862 15.8973 86.0324 15.8973 82.3497C15.8973 55.8257 37.4757 34.2469 64 34.2469ZM13.0463 107.642V99.9629H14.539H113.461H114.953V107.642H13.0463Z" fill="white"/>
</svg>
