<svg width="116" height="116" viewBox="0 0 116 116" fill="none" xmlns="http://www.w3.org/2000/svg">
<path d="M58.0002 17.5911C44.0587 17.5911 32.7161 28.9333 32.7161 42.8747C32.7161 56.8161 44.0587 68.1584 58.0002 68.1584C71.9416 68.1584 83.2843 56.8161 83.2843 42.8747C83.2843 28.9333 71.9416 17.5911 58.0002 17.5911ZM58.0002 61.3572C47.8086 61.3572 39.5168 53.0658 39.5168 42.8743C39.5168 32.6827 47.8086 24.3918 58.0002 24.3918C68.1917 24.3918 76.4836 32.6832 76.4836 42.8747C76.4836 53.0662 68.1921 61.3572 58.0002 61.3572Z" fill="#F4FAFF"/>
<path d="M58.0001 0C34.359 0 15.1257 19.2333 15.1257 42.8743C15.1257 56.5084 26.56 76.8212 33.3756 87.7154C37.86 94.8829 42.679 101.704 46.9444 106.923C53.7909 115.299 56.2414 116 58.0005 116C59.7859 116 62.0995 115.298 68.9247 106.918C73.1996 101.668 78.0209 94.8507 82.5007 87.7209C89.3631 76.7999 100.875 56.4508 100.875 42.8739C100.875 19.2333 81.6416 0 58.0001 0ZM77.786 82.4258C68.9923 96.6996 60.9189 106.345 57.9597 108.807C54.9851 106.421 47.0428 97.0047 38.1262 82.4707C27.8313 65.6889 21.9269 51.2564 21.9269 42.8743C21.9264 22.9832 38.1089 6.8007 58.0001 6.8007C77.8912 6.8007 94.0737 22.9832 94.0737 42.8743C94.0742 51.2084 88.1371 65.624 77.786 82.4258Z" fill="#F4FAFF"/>
</svg>
