<svg width="126" height="126" viewBox="0 0 126 126" fill="none" xmlns="http://www.w3.org/2000/svg">
<path d="M74.425 45.471C68.9067 34.4586 58.3639 26.3847 45.8213 24.2741L55.6238 14.7601L50.5248 3.96216H28.0399L22.9409 14.7601L32.7435 24.2741C14.1849 27.3972 0 43.5766 0 63.0092C0 89.6644 26.1749 108.693 51.5538 100.326C58.1633 113.535 71.6821 122.038 86.7176 122.038C108.348 122.038 126 104.574 126 82.7737C126 56.0671 99.8928 37.1244 74.425 45.471ZM31.9062 13.1325L32.7365 11.3739H45.8282L46.6585 13.1325L39.2824 20.292L31.9062 13.1325ZM48.8831 93.4012C28.3898 99.8892 7.41176 84.5053 7.41176 63.0092C7.41176 45.4357 21.7088 31.1386 39.2824 31.1386C51.6096 31.1386 62.324 38.1741 67.623 48.4404C51.6153 57.335 44.0153 75.9687 48.8831 93.4012ZM70.2532 55.4841C73.5447 69.0291 67.6563 83.079 55.7367 90.2944C52.4914 76.8178 58.2419 62.7293 70.2532 55.4841ZM109.254 105.31C93.9802 120.583 68.2208 116.498 58.355 97.3398C74.3573 88.414 81.9968 69.7954 77.1061 52.3933C88.1041 48.934 100.583 51.5674 109.254 60.238C121.709 72.6934 121.71 92.8534 109.254 105.31Z" fill="white"/>
</svg>
